<svg width="240" height="29" viewBox="0 0 240 29" fill="none" xmlns="http://www.w3.org/2000/svg">
<path d="M3.192 14.932C3.192 15.316 3.168 15.82 3.12 16.444C3.096 17.068 3.072 17.608 3.048 18.064H3.192C3.336 17.872 3.552 17.596 3.84 17.236C4.128 16.876 4.416 16.516 4.704 16.156C5.016 15.772 5.28 15.46 5.496 15.22L11.652 8.704H15.36L7.548 16.948L15.9 28H12.084L5.388 19L3.192 20.908V28H0.06V0.639998H3.192V14.932ZM24.2585 8.668C24.2585 9.628 24.1985 10.528 24.0785 11.368H24.2945C24.9185 10.384 25.7585 9.64 26.8145 9.136C27.8945 8.632 29.0585 8.38 30.3065 8.38C32.6585 8.38 34.4225 8.944 35.5985 10.072C36.7745 11.176 37.3625 12.964 37.3625 15.436V28H34.2305V15.652C34.2305 12.556 32.7905 11.008 29.9105 11.008C27.7505 11.008 26.2625 11.62 25.4465 12.844C24.6545 14.044 24.2585 15.772 24.2585 18.028V28H21.0905V0.639998H24.2585V8.668ZM52.4524 8.38C54.8044 8.38 56.5444 8.896 57.6724 9.928C58.8004 10.96 59.3644 12.604 59.3644 14.86V28H57.0604L56.4484 25.264H56.3044C55.4644 26.32 54.5764 27.1 53.6404 27.604C52.7284 28.108 51.4564 28.36 49.8244 28.36C48.0724 28.36 46.6204 27.904 45.4684 26.992C44.3164 26.056 43.7404 24.604 43.7404 22.636C43.7404 20.716 44.4964 19.24 46.0084 18.208C47.5204 17.152 49.8484 16.576 52.9924 16.48L56.2684 16.372V15.22C56.2684 13.612 55.9204 12.496 55.2244 11.872C54.5284 11.248 53.5444 10.936 52.2724 10.936C51.2644 10.936 50.3044 11.092 49.3924 11.404C48.4804 11.692 47.6284 12.028 46.8364 12.412L45.8644 10.036C46.7044 9.58 47.7004 9.196 48.8524 8.884C50.0044 8.548 51.2044 8.38 52.4524 8.38ZM53.3884 18.676C50.9884 18.772 49.3204 19.156 48.3844 19.828C47.4724 20.5 47.0164 21.448 47.0164 22.672C47.0164 23.752 47.3404 24.544 47.9884 25.048C48.6604 25.552 49.5124 25.804 50.5444 25.804C52.1764 25.804 53.5324 25.36 54.6124 24.472C55.6924 23.56 56.2324 22.168 56.2324 20.296V18.568L53.3884 18.676ZM65.5041 19.756V16.948H74.2161V19.756H65.5041ZM86.9696 25.768C87.4496 25.768 87.9416 25.732 88.4456 25.66C88.9496 25.564 89.3576 25.468 89.6696 25.372V27.784C89.3336 27.952 88.8536 28.084 88.2296 28.18C87.6056 28.3 87.0056 28.36 86.4296 28.36C85.4216 28.36 84.4856 28.192 83.6216 27.856C82.7816 27.496 82.0976 26.884 81.5696 26.02C81.0416 25.156 80.7776 23.944 80.7776 22.384V11.152H78.0416V9.64L80.8136 8.38L82.0736 4.276H83.9456V8.704H89.5256V11.152H83.9456V22.312C83.9456 23.488 84.2216 24.364 84.7736 24.94C85.3496 25.492 86.0816 25.768 86.9696 25.768ZM102.641 8.38C104.993 8.38 106.733 8.896 107.861 9.928C108.989 10.96 109.553 12.604 109.553 14.86V28H107.249L106.637 25.264H106.493C105.653 26.32 104.765 27.1 103.829 27.604C102.917 28.108 101.645 28.36 100.013 28.36C98.2614 28.36 96.8094 27.904 95.6574 26.992C94.5054 26.056 93.9294 24.604 93.9294 22.636C93.9294 20.716 94.6854 19.24 96.1974 18.208C97.7094 17.152 100.037 16.576 103.181 16.48L106.457 16.372V15.22C106.457 13.612 106.109 12.496 105.413 11.872C104.717 11.248 103.733 10.936 102.461 10.936C101.453 10.936 100.493 11.092 99.5814 11.404C98.6694 11.692 97.8174 12.028 97.0254 12.412L96.0534 10.036C96.8934 9.58 97.8894 9.196 99.0414 8.884C100.193 8.548 101.393 8.38 102.641 8.38ZM103.577 18.676C101.177 18.772 99.5094 19.156 98.5734 19.828C97.6614 20.5 97.2054 21.448 97.2054 22.672C97.2054 23.752 97.5294 24.544 98.1774 25.048C98.8494 25.552 99.7014 25.804 100.733 25.804C102.365 25.804 103.721 25.36 104.801 24.472C105.881 23.56 106.421 22.168 106.421 20.296V18.568L103.577 18.676ZM105.638 0.639998V6.544H102.758V0.639998H105.638ZM122.281 8.668C122.281 9.628 122.221 10.528 122.101 11.368H122.317C122.941 10.384 123.781 9.64 124.837 9.136C125.917 8.632 127.081 8.38 128.329 8.38C130.681 8.38 132.445 8.944 133.621 10.072C134.797 11.176 135.385 12.964 135.385 15.436V28H132.253V15.652C132.253 12.556 130.813 11.008 127.933 11.008C125.773 11.008 124.285 11.62 123.469 12.844C122.677 14.044 122.281 15.772 122.281 18.028V28H119.113V0.639998H122.281V8.668ZM141.547 19.756V16.948H150.259V19.756H141.547ZM163.013 25.768C163.493 25.768 163.985 25.732 164.489 25.66C164.993 25.564 165.401 25.468 165.713 25.372V27.784C165.377 27.952 164.897 28.084 164.273 28.18C163.649 28.3 163.049 28.36 162.473 28.36C161.465 28.36 160.529 28.192 159.665 27.856C158.825 27.496 158.141 26.884 157.613 26.02C157.085 25.156 156.821 23.944 156.821 22.384V11.152H154.085V9.64L156.857 8.38L158.117 4.276H159.989V8.704H165.569V11.152H159.989V22.312C159.989 23.488 160.265 24.364 160.817 24.94C161.393 25.492 162.125 25.768 163.013 25.768ZM183.94 22.672C183.94 24.544 183.244 25.96 181.852 26.92C180.46 27.88 178.588 28.36 176.236 28.36C174.892 28.36 173.728 28.252 172.744 28.036C171.784 27.82 170.932 27.52 170.188 27.136V24.256C170.956 24.64 171.88 25 172.96 25.336C174.064 25.648 175.18 25.804 176.308 25.804C177.916 25.804 179.08 25.552 179.8 25.048C180.52 24.52 180.88 23.824 180.88 22.96C180.88 22.48 180.748 22.048 180.484 21.664C180.22 21.28 179.74 20.896 179.044 20.512C178.372 20.128 177.4 19.696 176.128 19.216C174.88 18.736 173.812 18.256 172.924 17.776C172.036 17.296 171.352 16.72 170.872 16.048C170.392 15.376 170.152 14.512 170.152 13.456C170.152 11.824 170.812 10.564 172.132 9.676C173.476 8.788 175.228 8.344 177.388 8.344C178.564 8.344 179.656 8.464 180.664 8.704C181.696 8.92 182.656 9.232 183.544 9.64L182.464 12.16C181.648 11.824 180.796 11.536 179.908 11.296C179.02 11.056 178.108 10.936 177.172 10.936C175.876 10.936 174.88 11.152 174.184 11.584C173.512 11.992 173.176 12.556 173.176 13.276C173.176 13.804 173.332 14.26 173.644 14.644C173.956 15.004 174.472 15.364 175.192 15.724C175.936 16.06 176.92 16.468 178.144 16.948C179.368 17.404 180.412 17.872 181.276 18.352C182.14 18.832 182.8 19.42 183.256 20.116C183.712 20.788 183.94 21.64 183.94 22.672ZM193.571 8.668C193.571 9.628 193.511 10.528 193.391 11.368H193.607C194.231 10.384 195.071 9.64 196.127 9.136C197.207 8.632 198.371 8.38 199.619 8.38C201.971 8.38 203.735 8.944 204.911 10.072C206.087 11.176 206.675 12.964 206.675 15.436V28H203.543V15.652C203.543 12.556 202.103 11.008 199.223 11.008C197.063 11.008 195.575 11.62 194.759 12.844C193.967 14.044 193.571 15.772 193.571 18.028V28H190.403V0.639998H193.571V8.668ZM216.077 1.468C216.557 1.468 216.977 1.636 217.337 1.972C217.721 2.284 217.913 2.788 217.913 3.484C217.913 4.156 217.721 4.66 217.337 4.996C216.977 5.332 216.557 5.5 216.077 5.5C215.549 5.5 215.105 5.332 214.745 4.996C214.385 4.66 214.205 4.156 214.205 3.484C214.205 2.788 214.385 2.284 214.745 1.972C215.105 1.636 215.549 1.468 216.077 1.468ZM217.625 8.704V28H214.457V8.704H217.625ZM232.846 8.38C235.198 8.38 236.938 8.896 238.066 9.928C239.194 10.96 239.758 12.604 239.758 14.86V28H237.454L236.842 25.264H236.698C235.858 26.32 234.97 27.1 234.034 27.604C233.122 28.108 231.85 28.36 230.218 28.36C228.466 28.36 227.014 27.904 225.862 26.992C224.71 26.056 224.134 24.604 224.134 22.636C224.134 20.716 224.89 19.24 226.402 18.208C227.914 17.152 230.242 16.576 233.386 16.48L236.662 16.372V15.22C236.662 13.612 236.314 12.496 235.618 11.872C234.922 11.248 233.938 10.936 232.666 10.936C231.658 10.936 230.698 11.092 229.786 11.404C228.874 11.692 228.022 12.028 227.23 12.412L226.258 10.036C227.098 9.58 228.094 9.196 229.246 8.884C230.398 8.548 231.598 8.38 232.846 8.38ZM233.782 18.676C231.382 18.772 229.714 19.156 228.778 19.828C227.866 20.5 227.41 21.448 227.41 22.672C227.41 23.752 227.734 24.544 228.382 25.048C229.054 25.552 229.906 25.804 230.938 25.804C232.57 25.804 233.926 25.36 235.006 24.472C236.086 23.56 236.626 22.168 236.626 20.296V18.568L233.782 18.676Z" fill="black"/>
</svg>
